<svg width="225" height="45" viewBox="0 0 225 45" fill="none" xmlns="http://www.w3.org/2000/svg">
<path d="M21.8828 12.2109C21.8828 12.612 21.9557 12.9583 22.1016 13.25C22.2839 13.5052 22.375 13.7422 22.375 13.9609C22.3021 14.3255 22.375 14.763 22.5938 15.2734C22.8125 15.7474 22.9219 16.2396 22.9219 16.75C22.849 16.9688 22.5573 17.2604 22.0469 17.625C21.5729 17.9531 21.026 18.3177 20.4062 18.7188C19.8229 19.1198 19.2396 19.5208 18.6562 19.9219C18.1094 20.2865 17.7266 20.5781 17.5078 20.7969C17.6901 21.0885 17.9089 21.3255 18.1641 21.5078C18.4557 21.6901 18.7292 21.8724 18.9844 22.0547C19.2031 22.237 19.513 22.5104 19.9141 22.875C20.3516 23.2031 20.7891 23.5677 21.2266 23.9688C21.7005 24.3698 22.1198 24.7526 22.4844 25.1172C22.8854 25.4818 23.1406 25.7552 23.25 25.9375C23.3229 25.974 23.3776 26.1016 23.4141 26.3203C23.487 26.5391 23.5417 26.7943 23.5781 27.0859C23.6146 27.3411 23.6328 27.5964 23.6328 27.8516C23.6693 28.1068 23.6875 28.2708 23.6875 28.3438C23.651 28.7448 23.651 29.0365 23.6875 29.2188C23.7604 29.401 23.8151 29.6016 23.8516 29.8203C23.9245 30.0026 23.9792 30.1849 24.0156 30.3672C24.0521 30.5495 24.0703 30.6406 24.0703 30.6406C24.0703 30.8594 23.9609 31.0599 23.7422 31.2422C23.5599 31.4245 23.3776 31.5885 23.1953 31.7344C23.013 31.8802 22.8307 32.026 22.6484 32.1719C22.5026 32.3177 22.3385 32.4818 22.1562 32.6641C21.9375 32.8464 21.6823 33.0286 21.3906 33.2109C21.1354 33.3568 20.8984 33.5208 20.6797 33.7031C20.5339 33.776 20.4062 33.8854 20.2969 34.0312C20.1875 34.1406 20.0781 34.2318 19.9688 34.3047C19.6406 34.5964 19.276 34.888 18.875 35.1797C18.474 35.4349 18.0911 35.6719 17.7266 35.8906C17.3255 36.1458 16.9427 36.4193 16.5781 36.7109C16.2135 36.9661 15.8307 37.2396 15.4297 37.5312C14.8828 37.8594 14.3359 38.1875 13.7891 38.5156C13.2786 38.8073 12.7682 39.1172 12.2578 39.4453C12.0026 39.6276 11.7474 39.8099 11.4922 39.9922C11.2734 40.1745 11.0365 40.3385 10.7812 40.4844C10.0521 40.8854 9.32292 41.3047 8.59375 41.7422C7.86458 42.1797 7.15365 42.6536 6.46094 43.1641C5.8776 43.3099 5.45833 43.4193 5.20312 43.4922C4.94792 43.6016 4.69271 43.6562 4.4375 43.6562C4.21875 43.6562 4.07292 43.5651 4 43.3828C3.96354 43.237 3.8724 43.1641 3.72656 43.1641C3.17969 43.237 2.86979 43.237 2.79688 43.1641C2.76042 43.1276 2.6875 43.0729 2.57812 43C2.03125 43.0729 1.57552 43.0729 1.21094 43C1.10156 42.8177 1.02865 42.599 0.992188 42.3438C0.955729 42.0521 0.846354 41.8151 0.664062 41.6328C0.736979 41.2682 0.736979 40.9219 0.664062 40.5938C0.627604 40.2656 0.645833 39.9375 0.71875 39.6094C0.609375 39.1719 0.554688 38.7708 0.554688 38.4062C0.554688 37.9323 0.609375 37.4401 0.71875 36.9297C0.609375 36.6016 0.554688 36.2734 0.554688 35.9453C0.554688 35.6536 0.572917 35.362 0.609375 35.0703C0.645833 34.7786 0.664062 34.487 0.664062 34.1953C0.664062 33.8307 0.591146 33.5026 0.445312 33.2109C0.445312 32.5547 0.427083 31.9167 0.390625 31.2969C0.390625 30.6406 0.390625 29.9844 0.390625 29.3281C0.390625 29.0365 0.390625 28.7448 0.390625 28.4531C0.390625 28.1615 0.408854 27.8516 0.445312 27.5234C0.408854 27.3411 0.390625 27.0677 0.390625 26.7031C0.390625 26.4844 0.427083 26.3021 0.5 26.1562C0.572917 25.974 0.609375 25.7917 0.609375 25.6094C0.609375 25.2083 0.572917 24.8255 0.5 24.4609C0.463542 24.0964 0.445312 23.7135 0.445312 23.3125C0.445312 22.9479 0.463542 22.6016 0.5 22.2734C0.572917 21.9453 0.609375 21.599 0.609375 21.2344C0.5 21.0885 0.427083 20.9245 0.390625 20.7422C0.354167 20.5599 0.335938 20.3776 0.335938 20.1953C0.335938 20.0495 0.372396 19.8307 0.445312 19.5391C0.445312 19.2474 0.427083 18.9375 0.390625 18.6094C0.354167 18.2812 0.335938 17.9714 0.335938 17.6797C0.335938 17.5339 0.335938 17.4062 0.335938 17.2969C0.372396 17.1875 0.408854 17.0599 0.445312 16.9141C0.372396 16.6589 0.335938 16.4036 0.335938 16.1484C0.335938 15.8932 0.335938 15.638 0.335938 15.3828C0.335938 15.0547 0.354167 14.7266 0.390625 14.3984C0.427083 14.0339 0.445312 13.6875 0.445312 13.3594C0.408854 12.8125 0.408854 12.3932 0.445312 12.1016C0.518229 11.7734 0.572917 11.4453 0.609375 11.1172V8C0.609375 7.70833 0.572917 7.39844 0.5 7.07031C0.427083 6.70573 0.390625 6.35938 0.390625 6.03125C0.390625 5.84896 0.408854 5.57552 0.445312 5.21094C0.481771 4.84635 0.536458 4.57292 0.609375 4.39062C1.11979 3.625 1.72135 3.1875 2.41406 3.07812C2.5599 3.00521 2.66927 2.91406 2.74219 2.80469C2.8151 2.65885 2.97917 2.58594 3.23438 2.58594C3.67188 2.22135 3.96354 1.94792 4.10938 1.76562C4.25521 1.54688 4.4375 1.34635 4.65625 1.16406C4.76562 1.16406 4.85677 1.14583 4.92969 1.10938C5.03906 1.03646 5.16667 1 5.3125 1C5.56771 1.07292 5.76823 1.14583 5.91406 1.21875C6.09635 1.29167 6.27865 1.34635 6.46094 1.38281C7.1901 1.92969 7.90104 2.47656 8.59375 3.02344C9.32292 3.53385 10.0521 4.08073 10.7812 4.66406C11.1094 4.95573 11.4193 5.2474 11.7109 5.53906C12.0391 5.83073 12.3672 6.10417 12.6953 6.35938C12.8776 6.46875 13.0781 6.57812 13.2969 6.6875C13.5156 6.79688 13.7161 6.92448 13.8984 7.07031C14.2995 7.32552 14.7005 7.59896 15.1016 7.89062C15.5026 8.14583 15.9036 8.40104 16.3047 8.65625L20.2422 11.1172C20.5339 11.2995 20.8073 11.4818 21.0625 11.6641C21.3542 11.8464 21.6276 12.0286 21.8828 12.2109ZM14.0625 14.5625C13.5156 14.3073 12.987 13.9974 12.4766 13.6328C12.0026 13.2682 11.4922 12.9948 10.9453 12.8125C10.6536 12.5208 10.3438 12.3203 10.0156 12.2109C9.6875 12.1016 9.3776 11.9375 9.08594 11.7188C8.75781 11.4271 8.46615 11.1719 8.21094 10.9531C7.95573 10.7344 7.6276 10.5339 7.22656 10.3516C7.04427 11.4818 6.89844 12.5938 6.78906 13.6875C6.71615 14.7448 6.67969 15.8203 6.67969 16.9141C6.67969 18.0443 6.78906 19.1198 7.00781 20.1406C7.40885 19.9583 7.79167 19.7578 8.15625 19.5391C8.52083 19.3203 8.88542 19.1016 9.25 18.8828C9.39583 18.8099 9.52344 18.737 9.63281 18.6641C9.77865 18.5911 9.94271 18.5182 10.125 18.4453C10.3073 18.2995 10.4896 18.1536 10.6719 18.0078C10.8542 17.862 11.0365 17.7344 11.2188 17.625C11.6198 17.3333 12.0026 17.0781 12.3672 16.8594C12.7682 16.6042 13.1693 16.3307 13.5703 16.0391C13.7526 15.8932 13.9531 15.7839 14.1719 15.7109C14.3906 15.6016 14.6094 15.4557 14.8281 15.2734C14.7917 15.1276 14.6641 15.0182 14.4453 14.9453C14.263 14.8359 14.1354 14.7083 14.0625 14.5625ZM12.4766 24.7891C12.3672 24.7891 12.2578 24.7708 12.1484 24.7344C12.0391 24.6615 11.9115 24.625 11.7656 24.625C11.3281 24.9167 10.9089 25.1719 10.5078 25.3906C10.1432 25.5729 9.76042 25.7917 9.35938 26.0469C9.17708 26.1562 8.99479 26.2839 8.8125 26.4297C8.63021 26.5755 8.44792 26.6849 8.26562 26.7578C7.79167 27.0495 7.42708 27.3047 7.17188 27.5234C6.91667 27.7057 6.71615 27.9427 6.57031 28.2344C6.64323 29.2552 6.66146 30.276 6.625 31.2969C6.625 32.3177 6.625 33.3568 6.625 34.4141C6.625 34.5964 6.67969 34.7969 6.78906 35.0156C7.11719 34.9792 7.70052 34.7422 8.53906 34.3047C9.3776 33.8307 10.2526 33.3021 11.1641 32.7188C12.112 32.1354 13.0052 31.5703 13.8438 31.0234C14.7188 30.4766 15.3568 30.0755 15.7578 29.8203C16.0495 29.7474 16.3776 29.6016 16.7422 29.3828C17.1432 29.1641 17.3802 28.9089 17.4531 28.6172C16.7604 27.8151 15.9583 27.1589 15.0469 26.6484C14.1354 26.1016 13.2786 25.4818 12.4766 24.7891ZM48.7891 33.6484C49.0443 33.9766 49.1901 34.25 49.2266 34.4688C49.2995 34.651 49.3724 34.8516 49.4453 35.0703C49.5182 35.2526 49.5729 35.4349 49.6094 35.6172C49.6823 35.7995 49.7188 35.9089 49.7188 35.9453C49.7188 36.2005 49.6641 36.4193 49.5547 36.6016C49.4818 36.7474 49.3542 36.9479 49.1719 37.2031C47.7135 37.75 46.2734 38.2969 44.8516 38.8438C43.4297 39.3542 41.9714 39.8646 40.4766 40.375C40.0755 40.4844 39.7109 40.612 39.3828 40.7578C39.0547 40.8672 38.6901 40.9583 38.2891 41.0312C38.2161 41.1042 38.0885 41.1771 37.9062 41.25C37.7604 41.2865 37.5781 41.3411 37.3594 41.4141C37.1406 41.487 36.9219 41.5599 36.7031 41.6328C36.5208 41.6693 36.3932 41.6875 36.3203 41.6875C36.0286 41.7604 35.7005 41.7969 35.3359 41.7969C35.0078 41.7604 34.6797 41.7604 34.3516 41.7969C34.1693 41.8333 34.0417 41.9245 33.9688 42.0703C33.8958 42.2161 33.8047 42.3802 33.6953 42.5625C33.6224 42.7083 33.4948 42.8542 33.3125 43C33.1302 43.1094 32.875 43.1641 32.5469 43.1641C32.2188 43.1641 31.8906 43.1458 31.5625 43.1094C31.2344 43.0729 30.888 42.9818 30.5234 42.8359C30.4505 42.7266 30.4141 42.599 30.4141 42.4531C30.4505 42.2708 30.4323 42.125 30.3594 42.0156C30.0312 41.9792 29.776 42.0156 29.5938 42.125C29.4115 42.1979 29.2292 42.2526 29.0469 42.2891C28.9375 42.1432 28.8464 41.9792 28.7734 41.7969C28.737 41.5781 28.6458 41.3958 28.5 41.25C28.4635 41.0677 28.4453 40.8854 28.4453 40.7031C28.4453 40.5208 28.4453 40.3385 28.4453 40.1562C28.4453 39.901 28.4453 39.6094 28.4453 39.2812C28.4818 38.9167 28.5547 38.6432 28.6641 38.4609C28.7734 36.3828 28.8281 34.3047 28.8281 32.2266C28.8281 30.1484 28.8281 28.0703 28.8281 25.9922C28.8281 25.7734 28.8281 25.5 28.8281 25.1719C28.8281 24.8073 28.8099 24.4427 28.7734 24.0781C28.7734 23.7135 28.7552 23.3854 28.7188 23.0938C28.7188 22.7656 28.7005 22.5286 28.6641 22.3828C28.7005 22.1276 28.7188 21.8906 28.7188 21.6719C28.7188 21.4167 28.7188 21.1615 28.7188 20.9062C28.7188 20.6875 28.7188 20.487 28.7188 20.3047C28.7188 20.1224 28.6823 19.9401 28.6094 19.7578C28.6458 19.612 28.6641 19.4115 28.6641 19.1562C28.6641 18.974 28.6458 18.7917 28.6094 18.6094C28.5729 18.4271 28.5547 18.2448 28.5547 18.0625C28.5547 17.7708 28.5547 17.4974 28.5547 17.2422C28.5911 16.9505 28.6094 16.6589 28.6094 16.3672C28.6094 15.4193 28.5547 14.4896 28.4453 13.5781C28.3724 12.6302 28.3359 11.6823 28.3359 10.7344C28.3359 9.49479 28.3177 8.25521 28.2812 7.01562C28.2812 5.77604 28.263 4.53646 28.2266 3.29688C28.3724 2.93229 28.4453 2.6224 28.4453 2.36719C28.9557 2.11198 29.3568 2.02083 29.6484 2.09375C29.9401 2.16667 30.2318 2.20312 30.5234 2.20312C30.7057 2.20312 30.8698 2.1849 31.0156 2.14844C31.1615 2.11198 31.3073 2.05729 31.4531 1.98438C31.6354 2.02083 31.7812 2.07552 31.8906 2.14844C32.0365 2.1849 32.2005 2.20312 32.3828 2.20312C32.9297 2.09375 33.2214 2.07552 33.2578 2.14844C33.3307 2.22135 33.4219 2.29427 33.5312 2.36719C33.6771 2.33073 33.7865 2.27604 33.8594 2.20312C33.9688 2.09375 34.0964 2.03906 34.2422 2.03906C34.4609 2.03906 34.625 2.1849 34.7344 2.47656C34.8438 2.73177 34.9714 2.95052 35.1172 3.13281C35.1172 3.53385 35.1901 3.89844 35.3359 4.22656C35.4089 5.72135 35.4271 7.19792 35.3906 8.65625C35.3906 10.1146 35.4453 11.5729 35.5547 13.0312C35.5911 13.6875 35.6276 14.3802 35.6641 15.1094C35.737 15.8021 35.7734 16.4766 35.7734 17.1328C35.7734 18.2266 35.7734 19.3385 35.7734 20.4688C35.8099 21.5625 35.8281 22.6745 35.8281 23.8047C35.8281 23.987 35.8281 24.151 35.8281 24.2969C35.8646 24.4427 35.8828 24.6068 35.8828 24.7891C35.8828 25.2266 35.8646 25.6458 35.8281 26.0469C35.7917 26.4479 35.7734 26.849 35.7734 27.25V31.5156C35.7734 31.8802 35.7552 32.263 35.7188 32.6641C35.7188 33.0286 35.737 33.3932 35.7734 33.7578L35.9922 34.4141C36.3932 34.2682 36.7943 34.1224 37.1953 33.9766C37.6328 33.7943 38.0885 33.6667 38.5625 33.5938C38.8542 33.5208 39.1276 33.4479 39.3828 33.375C39.638 33.3021 39.9115 33.2292 40.2031 33.1562C40.7135 32.8646 41.1146 32.6641 41.4062 32.5547C41.6979 32.4453 41.9896 32.3359 42.2812 32.2266C42.901 32.0078 43.5026 31.7891 44.0859 31.5703C44.6693 31.3151 45.2708 31.0781 45.8906 30.8594C46.1823 30.9323 46.4193 30.8958 46.6016 30.75C46.9661 30.8229 47.2943 30.8594 47.5859 30.8594C47.987 31.2604 48.224 31.5703 48.2969 31.7891C48.4062 32.0078 48.5521 32.2083 48.7344 32.3906C48.6615 32.5729 48.6615 32.6823 48.7344 32.7188C48.8438 32.7552 48.9167 32.8464 48.9531 32.9922C49.099 33.0651 49.1172 33.1745 49.0078 33.3203C48.8984 33.4297 48.8255 33.5391 48.7891 33.6484ZM79.0859 21.2891C79.013 21.4349 78.9401 21.5807 78.8672 21.7266C78.7943 21.8359 78.7396 21.9635 78.7031 22.1094C78.849 22.2552 78.9766 22.4193 79.0859 22.6016C79.2318 22.7474 79.3047 22.9115 79.3047 23.0938C79.3047 23.2396 79.2682 23.3854 79.1953 23.5312C79.1589 23.6406 79.1589 23.75 79.1953 23.8594C79.0495 24.1146 78.8854 24.3516 78.7031 24.5703C78.5573 24.7891 78.4479 25.026 78.375 25.2812C78.2292 25.4271 78.1016 25.5729 77.9922 25.7188C77.9193 25.8646 77.8464 26.0104 77.7734 26.1562C77.5911 26.2292 77.4635 26.3568 77.3906 26.5391C77.3542 26.6849 77.263 26.8125 77.1172 26.9219C77.0807 27.0677 76.8984 27.4141 76.5703 27.9609C76.2422 28.5078 75.8776 29.0911 75.4766 29.7109C75.0755 30.3307 74.6927 30.9323 74.3281 31.5156C73.9635 32.099 73.7083 32.4818 73.5625 32.6641C73.4896 32.8464 73.3984 32.9922 73.2891 33.1016C73.2161 33.2109 73.125 33.3385 73.0156 33.4844C72.9427 33.5938 72.888 33.7214 72.8516 33.8672C72.8151 33.9766 72.7604 34.0677 72.6875 34.1406C72.6146 34.2865 72.5234 34.4141 72.4141 34.5234C72.3411 34.6328 72.2682 34.7786 72.1953 34.9609C71.8307 35.4349 71.4661 36 71.1016 36.6562C70.737 37.3125 70.3906 37.8958 70.0625 38.4062C69.8802 38.6979 69.6979 38.9896 69.5156 39.2812C69.3698 39.5729 69.2057 39.8646 69.0234 40.1562C68.8411 40.4479 68.6589 40.7214 68.4766 40.9766C68.2943 41.2318 68.112 41.5052 67.9297 41.7969C67.638 42.0156 67.3828 42.2891 67.1641 42.6172C66.9453 42.9089 66.6901 43.1641 66.3984 43.3828C65.9245 43.3828 65.6328 43.1641 65.5234 42.7266C65.0495 42.6172 64.8125 42.6172 64.8125 42.7266C64.8125 42.8359 64.8125 42.9271 64.8125 43C64.6667 43.0729 64.5573 43.1823 64.4844 43.3281C64.4479 43.474 64.3568 43.5833 64.2109 43.6562C63.9193 43.5833 63.6641 43.4557 63.4453 43.2734C63.263 43.1276 62.9896 43.0729 62.625 43.1094C62.4792 42.8906 62.3151 42.7083 62.1328 42.5625C61.9505 42.3802 61.7865 42.1979 61.6406 42.0156C61.5677 41.7969 61.4583 41.6146 61.3125 41.4688C61.2031 41.3229 61.0938 41.1771 60.9844 41.0312C60.875 40.849 60.7656 40.6849 60.6562 40.5391C60.5469 40.3932 60.4375 40.2474 60.3281 40.1016C60.0729 39.7734 59.8177 39.4635 59.5625 39.1719C59.3438 38.8438 59.1432 38.5156 58.9609 38.1875C58.6693 37.75 58.3776 37.3125 58.0859 36.875C57.8307 36.401 57.5573 35.9453 57.2656 35.5078C57.1198 35.2891 56.974 35.0703 56.8281 34.8516C56.6823 34.6328 56.5547 34.4141 56.4453 34.1953C56.3724 34.013 56.263 33.7943 56.1172 33.5391C56.0078 33.2839 55.862 33.1198 55.6797 33.0469C55.6068 32.7552 55.4792 32.5365 55.2969 32.3906C55.1146 32.2448 54.9323 32.0625 54.75 31.8438C54.4948 31.5521 54.2578 31.2422 54.0391 30.9141C53.8203 30.5495 53.6016 30.1849 53.3828 29.8203C52.6536 28.7995 51.9609 27.7969 51.3047 26.8125C50.6849 25.8281 50.0651 24.8073 49.4453 23.75C49.6276 23.1667 49.7188 22.7292 49.7188 22.4375C49.7188 22.1458 49.8099 21.9089 49.9922 21.7266C49.9922 21.5807 50.0286 21.362 50.1016 21.0703C50.5755 20.2682 51.0312 19.5391 51.4688 18.8828C51.8698 18.263 52.1432 17.7526 52.2891 17.3516C52.4714 16.9505 52.6536 16.5312 52.8359 16.0938C53.0182 15.9844 53.1641 15.8568 53.2734 15.7109C53.3828 15.5286 53.5286 15.3646 53.7109 15.2188C53.7839 14.8177 53.9479 14.4896 54.2031 14.2344C54.4583 13.9427 54.6224 13.5964 54.6953 13.1953C55.0234 12.9401 55.2057 12.6484 55.2422 12.3203C55.7161 11.9922 56.0078 11.5547 56.1172 11.0078C56.4089 10.7161 56.6458 10.388 56.8281 10.0234C57.0469 9.65885 57.2474 9.27604 57.4297 8.875C57.8672 8.51042 58.2135 8.03646 58.4688 7.45312C58.6875 7.30729 58.8516 7.10677 58.9609 6.85156C59.0703 6.59635 59.2161 6.3776 59.3984 6.19531C59.6901 5.72135 59.9089 5.33854 60.0547 5.04688C60.237 4.71875 60.4193 4.39062 60.6016 4.0625C60.8568 4.0625 61.0208 3.97135 61.0938 3.78906C61.1667 3.60677 61.3125 3.53385 61.5312 3.57031C61.5312 3.24219 61.6224 2.95052 61.8047 2.69531C61.8776 2.65885 61.987 2.6224 62.1328 2.58594C62.2786 2.51302 62.3516 2.4401 62.3516 2.36719C62.2786 1.92969 62.2969 1.67448 62.4062 1.60156C62.5156 1.52865 62.6068 1.45573 62.6797 1.38281C63.0807 1.45573 63.3542 1.51042 63.5 1.54688C63.6458 1.58333 63.8828 1.71094 64.2109 1.92969C64.5755 1.92969 64.8307 2.0026 64.9766 2.14844C65.1224 2.29427 65.2865 2.40365 65.4688 2.47656C65.6146 2.6224 65.724 2.76823 65.7969 2.91406C65.9062 3.0599 66.0521 3.16927 66.2344 3.24219C66.526 3.64323 66.8359 4.08073 67.1641 4.55469C67.4922 5.02865 67.8021 5.46615 68.0938 5.86719C68.4948 6.41406 68.8958 6.94271 69.2969 7.45312C69.7344 7.92708 70.1354 8.45573 70.5 9.03906C70.6094 9.22135 70.8099 9.54948 71.1016 10.0234C71.3932 10.4609 71.7214 10.9349 72.0859 11.4453C72.4505 11.9557 72.7786 12.4297 73.0703 12.8672C73.362 13.2682 73.5625 13.5052 73.6719 13.5781C73.7812 13.7604 74.0182 14.1068 74.3828 14.6172C74.7474 15.1276 75.1302 15.6745 75.5312 16.2578C75.9688 16.8047 76.388 17.3333 76.7891 17.8438C77.1901 18.3542 77.4635 18.6823 77.6094 18.8281C78.0104 19.375 78.3021 19.8307 78.4844 20.1953C78.7031 20.5234 78.9036 20.888 79.0859 21.2891ZM66.5625 31.5703C66.9635 31.0234 67.2734 30.5312 67.4922 30.0938C67.7109 29.6562 67.9297 29.2188 68.1484 28.7812C68.513 28.3438 68.7318 28.0339 68.8047 27.8516C68.8776 27.6693 68.9688 27.487 69.0781 27.3047C69.3698 26.8672 69.6615 26.4297 69.9531 25.9922C70.2812 25.5547 70.5365 25.0807 70.7188 24.5703C70.9375 24.4245 71.1016 24.2422 71.2109 24.0234C71.3203 23.8047 71.4844 23.6042 71.7031 23.4219C71.4844 22.6562 71.2292 22.0729 70.9375 21.6719C70.6458 21.2344 70.3542 20.8151 70.0625 20.4141C69.9531 20.2318 69.8438 20.0495 69.7344 19.8672C69.625 19.6849 69.5156 19.5026 69.4062 19.3203C69.2604 19.2109 69.1328 19.1016 69.0234 18.9922C68.9505 18.8828 68.8594 18.7734 68.75 18.6641C68.6771 18.4818 68.5677 18.2448 68.4219 17.9531C68.276 17.7708 68.1302 17.6068 67.9844 17.4609C67.8385 17.3151 67.7109 17.1328 67.6016 16.9141C67.4557 16.7682 67.2734 16.5677 67.0547 16.3125C66.8359 16.0573 66.599 15.7839 66.3438 15.4922C66.125 15.1641 65.9245 14.8724 65.7422 14.6172C65.5599 14.3255 65.4141 14.0885 65.3047 13.9062C65.2318 13.724 65.1589 13.5781 65.0859 13.4688C65.0495 13.3229 64.9948 13.1771 64.9219 13.0312C64.7396 12.776 64.5573 12.5573 64.375 12.375C64.1927 12.1562 64.0104 11.9193 63.8281 11.6641C63.7188 11.737 63.6094 11.7917 63.5 11.8281C63.4271 11.8281 63.3542 11.8646 63.2812 11.9375C63.026 12.4115 62.7344 12.849 62.4062 13.25C62.1146 13.651 61.8229 14.0885 61.5312 14.5625C61.276 15 61.0208 15.4557 60.7656 15.9297C60.5104 16.3672 60.2552 16.8047 60 17.2422C59.8177 17.4974 59.6354 17.7526 59.4531 18.0078C59.3073 18.2266 59.1432 18.4818 58.9609 18.7734C58.7786 19.0286 58.6146 19.3021 58.4688 19.5938C58.3594 19.849 58.2135 20.1042 58.0312 20.3594C57.7396 20.724 57.5026 21.0521 57.3203 21.3438C57.138 21.6354 56.9557 21.9818 56.7734 22.3828C56.8828 22.6016 57.0469 22.9115 57.2656 23.3125C57.5208 23.6771 57.776 24.0599 58.0312 24.4609C58.2865 24.8255 58.5052 25.1719 58.6875 25.5C58.9062 25.8281 59.0339 26.0469 59.0703 26.1562C59.362 26.4115 59.599 26.7031 59.7812 27.0312C59.9635 27.3229 60.2005 27.6146 60.4922 27.9062C60.638 28.1979 60.8021 28.4531 60.9844 28.6719C61.1667 28.8906 61.349 29.1276 61.5312 29.3828C61.7135 29.638 61.9505 30.0208 62.2422 30.5312C62.5339 31.0052 62.8255 31.4974 63.1172 32.0078C63.4089 32.5182 63.7005 32.9922 63.9922 33.4297C64.2839 33.8672 64.5208 34.1406 64.7031 34.25C65.0677 33.849 65.3594 33.4115 65.5781 32.9375C65.8333 32.4271 66.1615 31.9714 66.5625 31.5703ZM111.078 22.0547C111.151 22.3099 111.297 22.5833 111.516 22.875C111.734 23.1667 111.844 23.3854 111.844 23.5312C111.552 24.224 111.333 24.7708 111.188 25.1719C111.042 25.5365 110.805 25.8646 110.477 26.1562C110.477 26.2656 110.367 26.5026 110.148 26.8672C109.93 27.2318 109.674 27.6328 109.383 28.0703C109.128 28.4714 108.854 28.8724 108.562 29.2734C108.307 29.638 108.143 29.8932 108.07 30.0391C107.888 30.3307 107.742 30.6224 107.633 30.9141C107.523 31.1693 107.396 31.4245 107.25 31.6797C106.922 32.263 106.576 32.8099 106.211 33.3203C105.883 33.8307 105.573 34.3958 105.281 35.0156C105.099 35.1979 104.935 35.3984 104.789 35.6172C104.643 35.8359 104.479 36.0365 104.297 36.2188C103.859 37.0208 103.349 37.7682 102.766 38.4609C102.219 39.1536 101.708 39.9193 101.234 40.7578C101.635 41.1589 101.836 41.6693 101.836 42.2891C101.836 42.6172 101.745 42.7995 101.562 42.8359C101.38 42.8359 101.216 42.8724 101.07 42.9453C100.706 43.2005 100.378 43.3464 100.086 43.3828C99.7943 43.4193 99.5573 43.4375 99.375 43.4375C98.974 43.4375 98.5365 43.4193 98.0625 43.3828C97.5885 43.3828 97.1875 43.4193 96.8594 43.4922C96.75 43.5286 96.6224 43.5833 96.4766 43.6562C96.3307 43.7656 96.2214 43.8203 96.1484 43.8203C95.8568 43.8203 95.638 43.7656 95.4922 43.6562C95.3828 43.5833 95.2188 43.5104 95 43.4375C94.7083 43.1094 94.4349 42.763 94.1797 42.3984C93.9609 42.0339 93.724 41.6693 93.4688 41.3047C93.25 41.0495 93.013 40.8307 92.7578 40.6484C92.5026 40.4297 92.2656 40.1745 92.0469 39.8828C91.4635 39.0443 90.862 38.2422 90.2422 37.4766C89.6589 36.7109 89.0573 35.9453 88.4375 35.1797C88.1458 34.7786 87.8177 34.3958 87.4531 34.0312C87.125 33.6667 86.8151 33.3021 86.5234 32.9375C86.2318 32.5365 85.9583 32.1172 85.7031 31.6797C85.4479 31.2422 85.1745 30.8229 84.8828 30.4219C84.6641 30.0573 84.3542 29.6198 83.9531 29.1094C83.5521 28.5625 83.1328 28.0156 82.6953 27.4688C82.2578 26.9219 81.8021 26.4115 81.3281 25.9375C80.8906 25.4271 80.5078 25.0443 80.1797 24.7891C80.1797 24.5339 80.1068 24.3516 79.9609 24.2422C79.8151 24.1328 79.651 24.0052 79.4688 23.8594C79.3958 23.6771 79.3047 23.513 79.1953 23.3672C79.0859 23.1849 79.0312 22.9844 79.0312 22.7656C79.0312 22.5104 79.0859 22.2734 79.1953 22.0547C79.2682 21.9089 79.3047 21.7812 79.3047 21.6719C79.3411 21.526 79.3958 21.3802 79.4688 21.2344C79.651 20.7604 79.9062 20.3411 80.2344 19.9766C80.599 19.612 80.8724 19.1927 81.0547 18.7188C81.0911 18.5729 81.1094 18.4453 81.1094 18.3359C81.1094 18.1901 81.1458 18.0443 81.2188 17.8984C81.3281 17.6432 81.4922 17.4245 81.7109 17.2422C81.9297 17.0234 82.1302 16.7865 82.3125 16.5312C82.4948 16.2031 82.6771 15.875 82.8594 15.5469C83.0417 15.2188 83.224 14.8906 83.4062 14.5625C83.9167 13.724 84.4818 12.9219 85.1016 12.1562C85.7214 11.3542 86.3047 10.5703 86.8516 9.80469C87.362 9.07552 87.8359 8.36458 88.2734 7.67188C88.7109 6.94271 89.1849 6.21354 89.6953 5.48438C89.9505 5.11979 90.2422 4.71875 90.5703 4.28125C90.8984 3.80729 91.2266 3.35156 91.5547 2.91406C91.9193 2.47656 92.2839 2.07552 92.6484 1.71094C93.013 1.3099 93.3776 1.01823 93.7422 0.835938C94.362 0.763021 94.763 0.872396 94.9453 1.16406C95.1276 1.41927 95.3828 1.54688 95.7109 1.54688C96.2214 1.65625 96.5677 1.82031 96.75 2.03906C96.9323 2.25781 97.1146 2.45833 97.2969 2.64062C97.7708 2.64062 98.1719 2.73177 98.5 2.91406C98.8281 3.09635 99.1562 3.36979 99.4844 3.73438C99.3385 4.13542 99.138 4.5 98.8828 4.82812C98.6641 5.15625 98.4635 5.5026 98.2812 5.86719C97.9896 5.97656 97.7708 6.15885 97.625 6.41406C97.5156 6.66927 97.3333 6.88802 97.0781 7.07031C96.6771 7.6901 96.276 8.3099 95.875 8.92969C95.474 9.51302 95.0729 10.0781 94.6719 10.625C94.4896 10.8438 94.2891 11.026 94.0703 11.1719C93.8516 11.2812 93.651 11.4635 93.4688 11.7188C93.3958 11.8281 93.3411 11.9557 93.3047 12.1016C93.2682 12.2109 93.2135 12.3203 93.1406 12.4297C92.7031 13.1224 92.2109 13.7969 91.6641 14.4531C91.1172 15.1094 90.6432 15.8021 90.2422 16.5312C90.0599 16.7865 89.9141 17.0599 89.8047 17.3516C89.6953 17.6068 89.5677 17.862 89.4219 18.1172C89.276 18.3724 89.0573 18.7005 88.7656 19.1016C88.5104 19.4661 88.237 19.849 87.9453 20.25C87.6901 20.651 87.4531 21.0521 87.2344 21.4531C87.0521 21.8542 86.9609 22.1823 86.9609 22.4375C86.9974 22.6198 87.2344 22.9844 87.6719 23.5312C88.1094 24.0781 88.6016 24.6615 89.1484 25.2812C89.6953 25.901 90.2057 26.5026 90.6797 27.0859C91.1901 27.6328 91.5 27.9609 91.6094 28.0703C91.6823 28.2526 91.9557 28.6536 92.4297 29.2734C92.9036 29.8568 93.4323 30.513 94.0156 31.2422C94.6354 31.9349 95.237 32.6094 95.8203 33.2656C96.4036 33.9219 96.8047 34.3958 97.0234 34.6875L97.4609 35.3984C97.5339 35.362 97.7161 35.1068 98.0078 34.6328C98.3359 34.1589 98.6641 33.6302 98.9922 33.0469C99.3203 32.4635 99.612 31.9167 99.8672 31.4062C100.159 30.8958 100.341 30.5677 100.414 30.4219C100.523 30.3125 100.706 30.0208 100.961 29.5469C101.216 29.0729 101.49 28.5625 101.781 28.0156C102.109 27.4688 102.383 26.9583 102.602 26.4844C102.857 26.0104 103.003 25.7005 103.039 25.5547H102.383C101.799 25.5547 101.216 25.5911 100.633 25.6641C100.086 25.7005 99.5208 25.8099 98.9375 25.9922C98.6823 25.9557 98.4635 25.8828 98.2812 25.7734C98.099 25.6641 97.8802 25.5547 97.625 25.4453C97.5156 25.0807 97.4609 24.8255 97.4609 24.6797C97.4974 24.5339 97.4974 24.4245 97.4609 24.3516C97.4245 24.2057 97.3698 24.0964 97.2969 24.0234C97.2604 23.9505 97.2422 23.8411 97.2422 23.6953C97.2422 23.4401 97.2057 23.2396 97.1328 23.0938C97.0599 22.9115 96.987 22.7109 96.9141 22.4922C96.9141 22.3464 96.9141 22.2005 96.9141 22.0547C96.9505 21.9089 96.9323 21.7812 96.8594 21.6719C96.9323 21.0156 96.8776 20.5417 96.6953 20.25C96.6953 19.7396 96.7682 19.4115 96.9141 19.2656C97.0599 19.1198 97.1693 18.901 97.2422 18.6094C97.5703 18.7188 97.8438 18.7005 98.0625 18.5547C98.3177 18.3724 98.5729 18.2812 98.8281 18.2812C99.4115 18.2812 99.8854 18.1901 100.25 18.0078C100.578 17.9714 100.906 17.9531 101.234 17.9531C101.599 17.9531 101.945 17.9167 102.273 17.8438C102.456 17.8073 102.602 17.7708 102.711 17.7344C102.857 17.6979 103.021 17.6615 103.203 17.625C103.422 17.5885 103.659 17.5703 103.914 17.5703C104.169 17.5703 104.406 17.5703 104.625 17.5703C105.208 17.4974 105.792 17.4609 106.375 17.4609C106.958 17.4245 107.542 17.388 108.125 17.3516C108.307 17.4245 108.471 17.4792 108.617 17.5156C108.799 17.5521 108.964 17.6068 109.109 17.6797C109.219 17.7526 109.31 17.8438 109.383 17.9531C109.456 18.026 109.583 18.0807 109.766 18.1172C109.948 18.2995 110.076 18.4818 110.148 18.6641C110.076 18.9922 110.094 19.2292 110.203 19.375C110.021 19.5573 109.911 19.8125 109.875 20.1406C109.875 20.4323 109.857 20.7057 109.82 20.9609C110.076 21.0339 110.294 21.2344 110.477 21.5625C110.659 21.8906 110.786 22.0547 110.859 22.0547H111.078ZM126.5 1.60156C126.682 2.25781 126.865 2.91406 127.047 3.57031C127.229 4.1901 127.448 4.8099 127.703 5.42969C128.25 5.5026 128.578 5.55729 128.688 5.59375C128.833 5.63021 128.997 5.6849 129.18 5.75781C129.581 6.70573 129.818 7.72656 129.891 8.82031C130 9.8776 130.146 10.9167 130.328 11.9375C131.021 12.849 131.513 13.8333 131.805 14.8906C132.133 15.9115 132.497 16.9505 132.898 18.0078C133.008 18.3724 133.081 18.6094 133.117 18.7188C133.154 18.7917 133.172 18.8646 133.172 18.9375C133.391 19.5573 133.609 20.1953 133.828 20.8516C134.047 21.5078 134.284 22.1458 134.539 22.7656C134.648 23.0938 134.758 23.4219 134.867 23.75C135.013 24.0417 135.141 24.3333 135.25 24.625C135.359 24.9896 135.451 25.3724 135.523 25.7734C135.633 26.138 135.742 26.5026 135.852 26.8672C136.107 27.5964 136.38 28.3255 136.672 29.0547C136.964 29.7839 137.255 30.513 137.547 31.2422C137.656 31.4974 137.857 32.0625 138.148 32.9375C138.477 33.8125 138.805 34.7422 139.133 35.7266C139.461 36.6745 139.753 37.5677 140.008 38.4062C140.299 39.2083 140.445 39.7005 140.445 39.8828C140.445 40.1745 140.464 40.4844 140.5 40.8125C140.573 41.1042 140.628 41.4141 140.664 41.7422C140.518 42.1068 140.336 42.3073 140.117 42.3438C139.898 42.3802 139.698 42.362 139.516 42.2891C139.333 42.362 139.151 42.4349 138.969 42.5078C138.823 42.5807 138.677 42.6536 138.531 42.7266C138.422 42.763 138.331 42.8177 138.258 42.8906C138.185 42.9635 138.094 43 137.984 43C137.547 43 137.255 43.0365 137.109 43.1094C137 43.2188 136.818 43.2734 136.562 43.2734C136.234 43.1641 136.016 43.1458 135.906 43.2188C135.833 43.3281 135.76 43.401 135.688 43.4375C135.542 43.5104 135.378 43.5469 135.195 43.5469C135.013 43.5469 134.831 43.5651 134.648 43.6016C134.576 43.4557 134.503 43.3099 134.43 43.1641C134.393 43.0182 134.32 42.8542 134.211 42.6719C133.81 42.0885 133.518 41.5234 133.336 40.9766C133.19 40.4297 133.062 39.9922 132.953 39.6641C132.771 39.263 132.607 38.862 132.461 38.4609C132.352 38.0599 132.206 37.6589 132.023 37.2578C131.805 37.3307 131.604 37.4219 131.422 37.5312C131.24 37.6042 131.094 37.7135 130.984 37.8594C130.547 37.8594 130.328 37.9141 130.328 38.0234C130.328 38.1328 130.292 38.2422 130.219 38.3516C130 38.4245 129.818 38.4974 129.672 38.5703C129.562 38.6432 129.362 38.6615 129.07 38.625C128.888 38.8073 128.706 38.9714 128.523 39.1172C128.341 39.2266 128.104 39.2995 127.812 39.3359C127.521 39.6276 127.211 39.8828 126.883 40.1016C126.591 40.2839 126.245 40.3203 125.844 40.2109C125.333 40.3203 124.823 40.4297 124.312 40.5391C123.802 40.612 123.292 40.6484 122.781 40.6484C122.198 40.4661 121.833 40.3021 121.688 40.1562C121.542 40.0104 121.323 39.9375 121.031 39.9375C121.068 39.4271 120.958 39.0807 120.703 38.8984C120.703 38.7891 120.703 38.625 120.703 38.4062C120.74 38.151 120.794 37.987 120.867 37.9141C121.341 37.6953 121.615 37.4583 121.688 37.2031C121.76 36.9479 121.961 36.7839 122.289 36.7109C122.362 36.5651 122.435 36.4375 122.508 36.3281C122.617 36.1823 122.708 36.0365 122.781 35.8906C122.964 35.8177 123.109 35.763 123.219 35.7266C123.365 35.6901 123.474 35.5807 123.547 35.3984C123.729 35.3984 124.003 35.2891 124.367 35.0703C124.732 34.8151 124.969 34.6146 125.078 34.4688C125.37 34.3594 125.552 34.2682 125.625 34.1953C125.698 34.0859 125.789 33.9948 125.898 33.9219C126.263 33.9583 126.5 33.9219 126.609 33.8125C126.901 33.9583 127.229 34.0312 127.594 34.0312C127.74 34.0312 127.867 34.0312 127.977 34.0312C128.086 33.9948 128.214 33.9766 128.359 33.9766C128.651 33.6849 129.016 33.5026 129.453 33.4297C129.927 33.3203 130.31 33.1198 130.602 32.8281C130.492 32.5365 130.401 32.1901 130.328 31.7891C130.255 31.3516 130.128 31.0052 129.945 30.75C129.872 30.276 129.745 29.8203 129.562 29.3828C129.417 28.9453 129.289 28.526 129.18 28.125C128.779 26.5938 128.305 25.099 127.758 23.6406C127.211 22.1823 126.755 20.6875 126.391 19.1562C126.318 18.974 126.227 18.7917 126.117 18.6094C126.044 18.3906 125.971 18.1901 125.898 18.0078C125.716 18.4453 125.625 18.7005 125.625 18.7734C125.625 18.8099 125.589 18.8646 125.516 18.9375C125.479 19.1198 125.443 19.2839 125.406 19.4297C125.37 19.5391 125.315 19.6849 125.242 19.8672C125.133 20.1589 125.023 20.487 124.914 20.8516C124.841 21.1797 124.768 21.4896 124.695 21.7812C124.513 22.401 124.349 23.0573 124.203 23.75C124.057 24.4062 123.893 25.0625 123.711 25.7188C123.346 26.849 122.964 27.9792 122.562 29.1094C122.198 30.2031 121.833 31.3151 121.469 32.4453C121.396 32.9557 121.305 33.3568 121.195 33.6484C121.122 33.9036 121.031 34.1771 120.922 34.4688C120.849 34.724 120.776 34.9792 120.703 35.2344C120.667 35.4896 120.648 35.6901 120.648 35.8359C120.138 37.0026 119.701 38.1875 119.336 39.3906C119.008 40.5938 118.589 41.7604 118.078 42.8906C117.932 42.9635 117.805 43.0547 117.695 43.1641C117.586 43.2734 117.458 43.3281 117.312 43.3281C117.021 43.3281 116.857 43.2552 116.82 43.1094C116.82 42.9635 116.747 42.8906 116.602 42.8906C116.456 42.8906 116.328 42.9271 116.219 43C116.109 43.0365 116 43.0911 115.891 43.1641C115.708 43.0911 115.49 43.0365 115.234 43C115.016 43 114.852 42.9271 114.742 42.7812C114.487 42.9635 114.232 43.0547 113.977 43.0547C113.685 43.0547 113.393 42.9635 113.102 42.7812C112.883 42.8542 112.664 42.8906 112.445 42.8906C112.336 42.8906 112.208 42.8724 112.062 42.8359C111.917 42.7995 111.807 42.7448 111.734 42.6719C111.698 42.526 111.68 42.3802 111.68 42.2344C111.68 42.0885 111.68 41.9245 111.68 41.7422C111.68 41.3776 111.643 41.1042 111.57 40.9219C112.227 39.0625 112.865 37.1849 113.484 35.2891C114.104 33.3568 114.724 31.4062 115.344 29.4375C115.672 28.526 115.982 27.6328 116.273 26.7578C116.602 25.8828 116.911 24.9896 117.203 24.0781C117.349 23.5677 117.477 23.0938 117.586 22.6562C117.695 22.1823 117.841 21.7266 118.023 21.2891C118.315 20.3411 118.607 19.3932 118.898 18.4453C119.227 17.4609 119.518 16.4948 119.773 15.5469C119.919 15.4375 120.01 15.3099 120.047 15.1641C120.083 15.0182 120.138 14.8542 120.211 14.6719L120.156 13.9609C120.411 13.5964 120.576 13.2865 120.648 13.0312C120.758 12.7396 120.831 12.4479 120.867 12.1562C121.049 11.7188 121.214 11.2448 121.359 10.7344C121.505 10.224 121.615 9.75 121.688 9.3125C121.76 8.72917 121.797 8.07292 121.797 7.34375C121.833 6.57812 121.943 5.9401 122.125 5.42969C122.198 5.28385 122.253 5.19271 122.289 5.15625C122.362 5.08333 122.398 4.95573 122.398 4.77344C122.471 4.70052 122.544 4.6276 122.617 4.55469C122.727 4.44531 122.799 4.33594 122.836 4.22656C123.018 3.9349 123.073 3.67969 123 3.46094C122.964 3.24219 122.945 3.00521 122.945 2.75C123.273 2.56771 123.419 2.40365 123.383 2.25781C123.346 2.11198 123.328 1.96615 123.328 1.82031C123.328 1.63802 123.438 1.47396 123.656 1.32812C123.911 1.14583 124.076 0.963542 124.148 0.78125C124.367 0.817708 124.586 0.854167 124.805 0.890625C125.023 0.890625 125.242 0.872396 125.461 0.835938C125.716 1.3099 126.026 1.54688 126.391 1.54688L126.5 1.60156ZM181.734 42.8359C181.552 43.0182 181.352 43.1276 181.133 43.1641C180.914 43.2005 180.695 43.2188 180.477 43.2188C179.93 43.474 179.346 43.6016 178.727 43.6016C178.326 43.3828 178.107 43.3099 178.07 43.3828C178.034 43.4557 177.961 43.5286 177.852 43.6016C177.305 43.8568 176.812 43.9844 176.375 43.9844C175.938 44.0208 175.573 44.1302 175.281 44.3125C174.99 44.0938 174.826 43.7656 174.789 43.3281C174.789 42.9271 174.753 42.5807 174.68 42.2891C174.497 42.0339 174.37 41.724 174.297 41.3594C174.224 40.9583 174.169 40.5573 174.133 40.1562C174.096 39.7552 174.042 39.3724 173.969 39.0078C173.932 38.6068 173.841 38.2604 173.695 37.9688C173.659 37.7865 173.641 37.6224 173.641 37.4766C173.677 37.3307 173.659 37.1667 173.586 36.9844C173.622 36.3646 173.604 35.8724 173.531 35.5078C173.458 35.1432 173.385 34.7604 173.312 34.3594C173.276 34.1406 173.258 33.9036 173.258 33.6484C173.258 33.3568 173.148 33.138 172.93 32.9922C173.039 32.4818 173.057 32.099 172.984 31.8438C172.911 31.5885 172.857 31.3516 172.82 31.1328C172.784 30.8411 172.766 30.5312 172.766 30.2031C172.766 29.8385 172.729 29.5104 172.656 29.2188C172.438 27.4688 172.201 25.7188 171.945 23.9688C171.69 22.2188 171.453 20.4688 171.234 18.7188C171.016 18.901 170.852 19.1745 170.742 19.5391C170.669 19.9036 170.596 20.2318 170.523 20.5234C170.305 21.1797 170.104 21.8542 169.922 22.5469C169.74 23.2396 169.557 23.9141 169.375 24.5703C169.302 24.862 169.229 25.2083 169.156 25.6094C169.12 25.974 169.047 26.3021 168.938 26.5938C168.573 27.651 168.245 28.5625 167.953 29.3281C167.698 30.0938 167.443 30.8776 167.188 31.6797C167.115 32.1172 167.042 32.5365 166.969 32.9375C166.896 33.3385 166.823 33.7396 166.75 34.1406C166.714 34.3594 166.659 34.6693 166.586 35.0703C166.513 35.4714 166.44 35.763 166.367 35.9453C166.294 36.1276 166.221 36.2552 166.148 36.3281C166.112 36.401 166.112 36.5286 166.148 36.7109C165.784 37.2578 165.529 37.8594 165.383 38.5156C165.273 39.1719 165.055 39.8099 164.727 40.4297C164.727 40.8672 164.562 41.25 164.234 41.5781C164.052 41.6146 163.87 41.651 163.688 41.6875C163.542 41.724 163.378 41.7969 163.195 41.9062C163.013 41.8333 162.794 41.7969 162.539 41.7969C162.32 41.7604 162.102 41.7422 161.883 41.7422C161.701 41.7057 161.536 41.651 161.391 41.5781C161.245 41.4688 161.081 41.3958 160.898 41.3594C160.716 41.1406 160.516 40.9583 160.297 40.8125C160.078 40.6302 159.859 40.4479 159.641 40.2656C159.422 39.7188 159.221 39.3542 159.039 39.1719C158.93 38.7708 158.784 38.4062 158.602 38.0781C158.419 37.7135 158.292 37.3125 158.219 36.875C158.109 36.474 157.964 36.1094 157.781 35.7812C157.635 35.4167 157.471 35.0339 157.289 34.6328C157.216 34.3776 157.125 34.1406 157.016 33.9219C156.943 33.6667 156.852 33.4115 156.742 33.1562C156.706 32.8646 156.596 32.5 156.414 32.0625C156.268 31.625 156.159 31.2422 156.086 30.9141C156.086 30.8776 156.013 30.6953 155.867 30.3672C155.758 30.0026 155.63 29.6198 155.484 29.2188C155.375 28.8177 155.247 28.4531 155.102 28.125C154.992 27.7969 154.919 27.6146 154.883 27.5781C154.81 27.3958 154.737 27.2318 154.664 27.0859C154.628 26.9036 154.573 26.7031 154.5 26.4844C154.354 26.0104 154.172 25.5365 153.953 25.0625C153.734 24.5521 153.516 24.0781 153.297 23.6406C153.115 23.276 152.987 22.9297 152.914 22.6016C152.841 22.237 152.75 21.8906 152.641 21.5625C152.568 21.3802 152.495 21.2161 152.422 21.0703C152.385 20.9245 152.331 20.7604 152.258 20.5781C152.185 20.3594 152.112 20.1406 152.039 19.9219C151.966 19.6667 151.893 19.4115 151.82 19.1562C151.638 19.2292 151.547 19.3932 151.547 19.6484C151.583 19.8672 151.583 20.0677 151.547 20.25C151.474 20.651 151.438 21.0521 151.438 21.4531C151.438 21.8177 151.419 22.2005 151.383 22.6016C151.31 23.0391 151.237 23.4583 151.164 23.8594C151.091 24.2604 151.036 24.6615 151 25.0625C151 26.0469 150.945 27.0312 150.836 28.0156C150.763 28.8906 150.672 29.7839 150.562 30.6953C150.453 31.5703 150.38 32.4818 150.344 33.4297C150.344 34.1224 150.271 34.8151 150.125 35.5078C149.979 36.1641 149.943 36.8568 150.016 37.5859C149.943 37.7318 149.906 37.8411 149.906 37.9141C149.906 37.987 149.906 38.0964 149.906 38.2422C149.906 38.4245 149.888 38.625 149.852 38.8438C149.852 39.0625 149.852 39.263 149.852 39.4453C149.852 39.7734 149.888 39.9922 149.961 40.1016C149.852 40.4297 149.797 40.7943 149.797 41.1953C149.797 41.5599 149.797 41.9245 149.797 42.2891C149.724 42.4349 149.669 42.5807 149.633 42.7266C149.633 42.8724 149.578 43.0182 149.469 43.1641C149.505 43.7839 149.323 44.0938 148.922 44.0938C148.812 44.0938 148.685 44.0573 148.539 43.9844C148.43 43.9479 148.339 43.875 148.266 43.7656C147.865 43.8021 147.628 43.7109 147.555 43.4922C147.518 43.2734 147.409 43.1823 147.227 43.2188C146.789 43.401 146.534 43.4557 146.461 43.3828C146.424 43.3099 146.315 43.2917 146.133 43.3281C145.841 43.0365 145.641 42.9089 145.531 42.9453C145.458 42.9818 145.385 43 145.312 43C144.984 42.8906 144.802 42.8724 144.766 42.9453C144.729 42.9818 144.656 43 144.547 43C144.365 42.8177 144.109 42.7266 143.781 42.7266C143.49 42.7266 143.234 42.7083 143.016 42.6719C142.979 42.526 142.943 42.3984 142.906 42.2891C142.906 42.1432 142.906 41.9792 142.906 41.7969C142.906 41.5781 142.906 41.3776 142.906 41.1953C142.943 40.9766 142.961 40.7578 142.961 40.5391C142.961 40.3568 142.943 40.1745 142.906 39.9922C142.906 39.7734 142.906 39.5365 142.906 39.2812C142.906 39.026 142.924 38.7891 142.961 38.5703C142.997 38.3151 143.016 38.0417 143.016 37.75C143.016 37.6406 142.997 37.5495 142.961 37.4766C142.924 37.3672 142.906 37.2396 142.906 37.0938C143.125 36.6198 143.216 36.2552 143.18 36C143.18 35.7083 143.198 35.4349 143.234 35.1797C143.307 34.5599 143.362 33.9583 143.398 33.375C143.471 32.7552 143.544 32.1354 143.617 31.5156C143.617 30.4948 143.635 29.6562 143.672 29C143.745 28.3073 143.836 27.6146 143.945 26.9219C144.018 26.5938 144.073 26.2839 144.109 25.9922C144.182 25.7005 144.255 25.3906 144.328 25.0625C144.401 24.5156 144.438 23.9505 144.438 23.3672C144.474 22.7474 144.529 22.1458 144.602 21.5625C144.674 20.651 144.766 19.7578 144.875 18.8828C144.984 17.9714 145.076 17.0781 145.148 16.2031C145.221 15.5104 145.294 14.8359 145.367 14.1797C145.477 13.487 145.531 12.8307 145.531 12.2109C145.531 11.8828 145.568 11.4635 145.641 10.9531C145.75 10.4427 145.823 10.0052 145.859 9.64062C145.932 8.76562 145.987 7.90885 146.023 7.07031C146.096 6.23177 146.133 5.39323 146.133 4.55469V3.95312C146.133 3.88021 146.169 3.80729 146.242 3.73438C146.315 3.66146 146.352 3.53385 146.352 3.35156C146.352 3.02344 146.424 2.80469 146.57 2.69531C146.753 2.54948 146.898 2.33073 147.008 2.03906C147.19 2.03906 147.391 2.05729 147.609 2.09375C147.865 2.13021 148.047 2.23958 148.156 2.42188C148.411 2.34896 148.667 2.3125 148.922 2.3125C149.177 2.3125 149.396 2.22135 149.578 2.03906C149.797 2.03906 149.961 2.09375 150.07 2.20312C150.18 2.3125 150.326 2.40365 150.508 2.47656C150.654 2.40365 150.799 2.34896 150.945 2.3125C151.091 2.23958 151.237 2.16667 151.383 2.09375C151.492 2.16667 151.565 2.25781 151.602 2.36719C151.674 2.4401 151.766 2.49479 151.875 2.53125C152.422 2.38542 152.786 2.36719 152.969 2.47656C153.042 2.6224 153.078 2.76823 153.078 2.91406C153.115 3.0599 153.151 3.20573 153.188 3.35156C153.552 3.71615 153.789 4.13542 153.898 4.60938C154.008 5.04688 154.208 5.44792 154.5 5.8125C154.573 6.03125 154.646 6.25 154.719 6.46875C154.828 6.6875 154.919 6.94271 154.992 7.23438L155.156 7.89062C155.302 8.25521 155.484 8.69271 155.703 9.20312C155.885 9.89583 156.049 10.6068 156.195 11.3359C156.341 12.0651 156.578 12.7396 156.906 13.3594C156.943 13.5781 156.997 13.8516 157.07 14.1797C157.18 14.4714 157.271 14.7266 157.344 14.9453C157.599 15.5651 157.854 16.1849 158.109 16.8047C158.401 17.388 158.656 18.026 158.875 18.7188C159.094 19.4115 159.276 20.1224 159.422 20.8516C159.604 21.5807 159.823 22.2917 160.078 22.9844C160.297 23.6406 160.461 24.1146 160.57 24.4062C160.68 24.6979 160.826 24.9896 161.008 25.2812C161.008 25.3906 161.026 25.5729 161.062 25.8281C161.135 26.0833 161.227 26.3568 161.336 26.6484C161.445 26.9036 161.555 27.1589 161.664 27.4141C161.773 27.6328 161.883 27.7604 161.992 27.7969C162.102 27.724 162.156 27.6146 162.156 27.4688C162.193 27.3229 162.266 27.1953 162.375 27.0859C162.411 26.6849 162.466 26.1927 162.539 25.6094C162.648 25.026 162.794 24.5521 162.977 24.1875C162.977 24.0052 163.013 23.6771 163.086 23.2031C163.195 22.6927 163.323 22.1641 163.469 21.6172C163.615 21.0339 163.742 20.5052 163.852 20.0312C163.997 19.5573 164.125 19.2656 164.234 19.1562C164.307 18.6823 164.362 18.3906 164.398 18.2812C164.471 18.1719 164.544 18.0807 164.617 18.0078C164.654 17.7161 164.727 17.4427 164.836 17.1875C164.945 16.9323 165.018 16.6589 165.055 16.3672C165.128 15.7474 165.219 15.237 165.328 14.8359C165.438 14.4349 165.583 13.9427 165.766 13.3594C165.911 12.849 166.039 12.3385 166.148 11.8281C166.294 11.2812 166.458 10.7526 166.641 10.2422C167.078 8.85677 167.461 7.63542 167.789 6.57812C168.154 5.48438 168.591 4.42708 169.102 3.40625C169.211 3.07812 169.302 2.8776 169.375 2.80469C169.448 2.73177 169.521 2.65885 169.594 2.58594C169.885 2.47656 170.177 2.42188 170.469 2.42188C170.797 2.42188 171.125 2.4401 171.453 2.47656C171.818 2.33073 172.091 2.16667 172.273 1.98438C172.419 2.16667 172.638 2.25781 172.93 2.25781C173.294 2.25781 173.549 2.14844 173.695 1.92969C173.841 2.0026 173.951 2.02083 174.023 1.98438C174.133 1.94792 174.279 1.96615 174.461 2.03906C174.534 1.96615 174.625 1.89323 174.734 1.82031C174.844 1.71094 174.953 1.65625 175.062 1.65625C175.354 2.02083 175.573 2.3125 175.719 2.53125C175.901 2.71354 176.029 2.93229 176.102 3.1875C176.211 3.51562 176.266 3.88021 176.266 4.28125C176.302 4.64583 176.411 4.99219 176.594 5.32031C176.557 5.79427 176.576 6.52344 176.648 7.50781C176.758 8.45573 176.867 9.47656 176.977 10.5703C177.122 11.6276 177.268 12.612 177.414 13.5234C177.56 14.4349 177.688 15 177.797 15.2188C177.76 15.6927 177.779 16.0938 177.852 16.4219C177.924 16.75 177.961 17.0781 177.961 17.4062C177.961 17.5156 177.979 17.7526 178.016 18.1172C178.052 18.4453 178.089 18.8099 178.125 19.2109C178.161 19.5755 178.198 19.9401 178.234 20.3047C178.307 20.6328 178.362 20.8698 178.398 21.0156C178.398 21.6719 178.508 22.1823 178.727 22.5469C178.909 23.4583 179.055 24.3698 179.164 25.2812C179.31 26.1927 179.438 27.1224 179.547 28.0703C179.62 28.5443 179.656 29 179.656 29.4375C179.693 29.875 179.747 30.3307 179.82 30.8047C179.857 30.987 179.893 31.1693 179.93 31.3516C180.003 31.5339 180.057 31.7161 180.094 31.8984C180.167 32.263 180.221 32.6094 180.258 32.9375C180.294 33.2656 180.349 33.5938 180.422 33.9219C180.458 34.1042 180.513 34.3047 180.586 34.5234C180.659 34.7057 180.659 34.9062 180.586 35.125C180.659 35.3802 180.677 35.6536 180.641 35.9453C180.641 36.237 180.714 36.4922 180.859 36.7109C180.859 37.4766 180.914 38.151 181.023 38.7344C181.06 39.1719 181.169 39.6094 181.352 40.0469C181.424 40.4844 181.479 40.9401 181.516 41.4141C181.589 41.888 181.661 42.362 181.734 42.8359ZM194.75 28.6719C194.823 28.8542 195.078 29.237 195.516 29.8203C195.99 30.4036 196.518 31.0417 197.102 31.7344C197.685 32.4271 198.232 33.1016 198.742 33.7578C199.289 34.3776 199.672 34.8333 199.891 35.125C200.292 35.6354 200.674 36.1458 201.039 36.6562C201.44 37.1302 201.805 37.6406 202.133 38.1875L203.117 39.8281C203.409 40.1927 203.664 40.5026 203.883 40.7578C204.138 41.013 204.339 41.3594 204.484 41.7969C204.557 42.0885 204.594 42.2891 204.594 42.3984C204.594 42.6536 204.503 42.8359 204.32 42.9453C204.029 42.9453 203.865 42.9818 203.828 43.0547C203.828 43.1641 203.755 43.2552 203.609 43.3281C203.464 43.401 203.227 43.4375 202.898 43.4375C202.607 43.474 202.37 43.4922 202.188 43.4922C201.859 43.4922 201.44 43.474 200.93 43.4375C200.456 43.4375 200.073 43.4922 199.781 43.6016C199.708 43.638 199.599 43.6927 199.453 43.7656C199.307 43.8385 199.198 43.875 199.125 43.875C198.833 43.875 198.615 43.8203 198.469 43.7109C198.359 43.638 198.195 43.5833 197.977 43.5469C197.685 43.2188 197.43 42.8906 197.211 42.5625C197.029 42.1979 196.81 41.8333 196.555 41.4688C196.299 41.2135 196.044 40.9948 195.789 40.8125C195.534 40.5938 195.315 40.3568 195.133 40.1016C194.586 39.2995 194.021 38.5156 193.438 37.75C192.854 36.9844 192.253 36.237 191.633 35.5078C191.341 35.1068 191.031 34.7422 190.703 34.4141C190.375 34.0859 190.065 33.7214 189.773 33.3203C189.482 32.9557 189.208 32.5729 188.953 32.1719C188.698 31.7344 188.443 31.3151 188.188 30.9141C187.969 30.5859 187.677 30.1667 187.312 29.6562C186.948 29.1094 186.547 28.5807 186.109 28.0703C185.672 27.5234 185.234 27.013 184.797 26.5391C184.359 26.0651 183.995 25.7005 183.703 25.4453C183.667 25.2266 183.576 25.0625 183.43 24.9531C183.284 24.8073 183.12 24.6797 182.938 24.5703C182.865 24.388 182.792 24.224 182.719 24.0781C182.609 23.8958 182.555 23.7135 182.555 23.5312C182.555 23.276 182.609 23.0391 182.719 22.8203C182.792 22.6745 182.846 22.5469 182.883 22.4375C182.883 22.2917 182.919 22.1458 182.992 22C183.174 21.599 183.411 21.2161 183.703 20.8516C184.031 20.4505 184.286 20.0312 184.469 19.5938C184.542 19.4844 184.578 19.375 184.578 19.2656C184.578 19.1198 184.615 18.9922 184.688 18.8828C184.76 18.5911 184.906 18.3542 185.125 18.1719C185.38 17.9531 185.581 17.7161 185.727 17.4609C185.909 17.1693 186.073 16.8776 186.219 16.5859C186.401 16.2578 186.583 15.9115 186.766 15.5469C187.312 14.6354 187.878 13.7604 188.461 12.9219C189.081 12.0469 189.701 11.1719 190.32 10.2969C190.794 9.56771 191.25 8.875 191.688 8.21875C192.161 7.52604 192.635 6.83333 193.109 6.14062C193.365 5.8125 193.638 5.42969 193.93 4.99219C194.221 4.55469 194.531 4.11719 194.859 3.67969C195.224 3.24219 195.589 2.84115 195.953 2.47656C196.318 2.11198 196.682 1.82031 197.047 1.60156C197.594 1.5651 197.958 1.69271 198.141 1.98438C198.323 2.23958 198.596 2.36719 198.961 2.36719C199.435 2.47656 199.745 2.6224 199.891 2.80469C200.036 2.98698 200.201 3.16927 200.383 3.35156C200.893 3.35156 201.294 3.44271 201.586 3.625C201.914 3.80729 202.224 4.08073 202.516 4.44531C202.406 4.84635 202.242 5.21094 202.023 5.53906C201.805 5.83073 201.604 6.14062 201.422 6.46875C201.13 6.61458 200.911 6.8151 200.766 7.07031C200.656 7.32552 200.474 7.52604 200.219 7.67188C199.854 8.29167 199.471 8.89323 199.07 9.47656C198.669 10.0234 198.268 10.5703 197.867 11.1172C197.648 11.4453 197.411 11.737 197.156 11.9922C196.938 12.2474 196.737 12.5208 196.555 12.8125C196.482 12.9219 196.409 13.0495 196.336 13.1953C196.299 13.3047 196.245 13.4141 196.172 13.5234C195.734 14.2161 195.26 14.8724 194.75 15.4922C194.24 16.0755 193.766 16.7318 193.328 17.4609C193.182 17.7161 193.055 17.9896 192.945 18.2812C192.872 18.5365 192.763 18.7917 192.617 19.0469C192.471 19.2656 192.253 19.5573 191.961 19.9219C191.706 20.2865 191.451 20.6875 191.195 21.125C190.94 21.526 190.703 21.9271 190.484 22.3281C190.302 22.6927 190.211 23.0026 190.211 23.2578C190.247 23.4401 190.466 23.8047 190.867 24.3516C191.305 24.862 191.779 25.4271 192.289 26.0469C192.836 26.6302 193.346 27.1953 193.82 27.7422C194.294 28.2526 194.604 28.5625 194.75 28.6719ZM198.359 18.7188C198.615 19.2656 198.888 19.7396 199.18 20.1406C199.289 20.2865 199.417 20.4141 199.562 20.5234C199.708 20.6328 199.818 20.7786 199.891 20.9609C199.964 21.0339 200.036 21.1979 200.109 21.4531C200.182 21.6719 200.255 21.8359 200.328 21.9453C200.438 22.237 200.656 22.5651 200.984 22.9297C201.312 23.2943 201.477 23.6224 201.477 23.9141C201.477 24.0964 201.44 24.2969 201.367 24.5156C201.294 24.7344 201.24 24.9349 201.203 25.1172C201.167 25.3359 201.148 25.5729 201.148 25.8281C201.148 26.0469 201.076 26.2474 200.93 26.4297C200.747 26.612 200.547 26.7214 200.328 26.7578C200.109 26.7943 199.909 26.8854 199.727 27.0312C199.654 27.1042 199.544 27.2318 199.398 27.4141C199.253 27.5964 199.107 27.7969 198.961 28.0156C198.815 28.2344 198.669 28.4531 198.523 28.6719C198.414 28.8542 198.359 29 198.359 29.1094C197.922 29.1458 197.63 29.1641 197.484 29.1641C197.375 29.1276 197.247 29.1276 197.102 29.1641C196.919 28.9818 196.719 28.8359 196.5 28.7266C196.318 28.5807 196.081 28.4531 195.789 28.3438C195.716 28.0521 195.552 27.724 195.297 27.3594C195.042 26.9583 194.823 26.6302 194.641 26.375L194.258 25.8828C193.711 25.1172 193.201 24.388 192.727 23.6953C192.289 22.9661 191.961 22.1641 191.742 21.2891C192.435 20.7786 192.964 20.3958 193.328 20.1406C193.729 19.8854 194.148 19.6484 194.586 19.4297C195.023 19.2109 195.443 19.0104 195.844 18.8281C196.281 18.6094 196.682 18.3542 197.047 18.0625C197.339 18.0625 197.539 18.0807 197.648 18.1172C197.758 18.1536 197.831 18.1901 197.867 18.2266C197.904 18.263 197.94 18.3359 197.977 18.4453C198.049 18.5182 198.177 18.6094 198.359 18.7188ZM218.32 2.69531C218.393 2.84115 218.466 2.95052 218.539 3.02344C218.648 3.0599 218.721 3.16927 218.758 3.35156C219.013 3.53385 219.214 3.67969 219.359 3.78906C219.505 3.86198 219.596 4.00781 219.633 4.22656C219.961 4.48177 220.143 4.64583 220.18 4.71875C220.253 4.79167 220.307 4.88281 220.344 4.99219C220.526 5.13802 220.69 5.26562 220.836 5.375C221.018 5.48438 221.146 5.64844 221.219 5.86719C221.51 6.1224 221.693 6.32292 221.766 6.46875C221.839 6.61458 221.893 6.77865 221.93 6.96094C221.784 7.21615 221.492 7.5625 221.055 8C220.617 8.4375 220.125 8.91146 219.578 9.42188C219.031 9.89583 218.503 10.3698 217.992 10.8438C217.482 11.2812 217.081 11.6276 216.789 11.8828C216.716 12.0286 216.625 12.1562 216.516 12.2656C216.406 12.375 216.315 12.5026 216.242 12.6484C216.023 12.8307 215.823 13.0312 215.641 13.25C215.458 13.4323 215.24 13.5781 214.984 13.6875C214.62 14.1979 214.109 14.7083 213.453 15.2188C212.797 15.6927 212.359 16.1667 212.141 16.6406C212.177 16.75 212.25 16.8594 212.359 16.9688C212.505 17.0781 212.615 17.1693 212.688 17.2422C212.979 17.5339 213.326 17.8073 213.727 18.0625C214.128 18.2812 214.474 18.5365 214.766 18.8281C215.057 19.0833 215.349 19.3385 215.641 19.5938C215.932 19.8125 216.224 20.0495 216.516 20.3047C216.661 20.4505 216.844 20.6693 217.062 20.9609C217.427 21.2526 217.773 21.526 218.102 21.7812C218.466 22 218.812 22.2552 219.141 22.5469C219.833 23.1302 220.508 23.7318 221.164 24.3516C221.82 24.9349 222.513 25.5182 223.242 26.1016L223.68 26.5938C223.68 26.8854 223.753 27.2318 223.898 27.6328C224.081 27.9974 224.245 28.3073 224.391 28.5625C224.318 28.9271 224.318 29.1641 224.391 29.2734C224.5 29.3464 224.591 29.4193 224.664 29.4922C224.628 30.1849 224.646 30.6406 224.719 30.8594C224.099 31.4062 223.516 31.9167 222.969 32.3906C222.458 32.8281 222.003 33.2656 221.602 33.7031C221.273 34.1042 220.927 34.4688 220.562 34.7969C220.234 35.0885 219.87 35.4167 219.469 35.7812C219.25 36.0729 219.068 36.2734 218.922 36.3828C218.667 36.638 218.411 36.8385 218.156 36.9844C217.719 37.3854 217.281 37.7682 216.844 38.1328C216.443 38.4974 216.042 38.862 215.641 39.2266C215.349 39.4818 215.076 39.737 214.82 39.9922C214.565 40.2109 214.31 40.4661 214.055 40.7578C213.836 40.9766 213.581 41.2318 213.289 41.5234C213.034 41.8151 212.76 42.0521 212.469 42.2344C212.359 42.4531 212.214 42.6536 212.031 42.8359C211.849 42.9818 211.685 43.1458 211.539 43.3281C211.284 43.474 211.047 43.6198 210.828 43.7656C210.609 43.9115 210.354 44.0573 210.062 44.2031C209.771 43.9844 209.479 43.7839 209.188 43.6016C208.932 43.4193 208.641 43.2917 208.312 43.2188C208.094 43.0365 207.93 42.8542 207.82 42.6719C207.711 42.4896 207.51 42.362 207.219 42.2891C207.146 42.1797 207.055 42.0703 206.945 41.9609C206.872 41.8151 206.799 41.6693 206.727 41.5234C206.289 41.487 205.943 41.2135 205.688 40.7031C205.76 40.4844 205.852 40.3203 205.961 40.2109C206.107 40.1016 206.143 39.901 206.07 39.6094C206.289 39.2448 206.544 38.9349 206.836 38.6797C207.164 38.388 207.474 38.0964 207.766 37.8047C208.094 37.513 208.385 37.2214 208.641 36.9297C208.932 36.6016 209.242 36.2917 209.57 36C209.753 35.8177 209.935 35.6536 210.117 35.5078C210.299 35.3255 210.5 35.1432 210.719 34.9609C211.12 34.5599 211.521 34.1953 211.922 33.8672C212.359 33.5026 212.797 33.1198 213.234 32.7188C213.818 32.1354 214.419 31.5885 215.039 31.0781C215.659 30.5312 216.224 29.9297 216.734 29.2734C216.698 29.1276 216.643 29.0365 216.57 29C216.497 28.9271 216.443 28.8359 216.406 28.7266C215.823 28.1797 215.24 27.651 214.656 27.1406C214.109 26.5938 213.508 26.1198 212.852 25.7188C212.633 25.5 212.487 25.3177 212.414 25.1719C211.758 24.6979 211.12 24.1693 210.5 23.5859C209.917 23.0026 209.26 22.5104 208.531 22.1094C208.385 21.9271 208.203 21.7812 207.984 21.6719C207.802 21.526 207.62 21.3984 207.438 21.2891C207.328 21.1068 207.201 20.9609 207.055 20.8516C206.945 20.7057 206.799 20.5964 206.617 20.5234C206.326 20.2682 206.125 20.0677 206.016 19.9219C205.943 19.7396 205.797 19.6302 205.578 19.5938C205.505 19.4115 205.378 19.2656 205.195 19.1562C205.049 19.0469 204.885 18.9193 204.703 18.7734C204.63 18.5547 204.521 18.3724 204.375 18.2266C204.339 17.9349 204.357 17.7344 204.43 17.625C204.503 17.4792 204.557 17.3698 204.594 17.2969C204.557 17.0781 204.466 16.9141 204.32 16.8047C204.138 16.6953 204.047 16.513 204.047 16.2578C204.047 16.112 204.102 16.0208 204.211 15.9844C204.284 15.9115 204.339 15.8203 204.375 15.7109L204.539 14.8906C204.831 14.6719 205.068 14.4167 205.25 14.125C205.469 13.7969 205.742 13.5417 206.07 13.3594C206.435 12.8125 206.891 12.3568 207.438 11.9922C207.62 11.7005 207.839 11.4635 208.094 11.2812C208.385 11.099 208.622 10.862 208.805 10.5703C209.096 10.388 209.333 10.1875 209.516 9.96875C209.734 9.75 209.99 9.54948 210.281 9.36719C210.354 9.22135 210.427 9.11198 210.5 9.03906C210.609 8.92969 210.682 8.82031 210.719 8.71094C211.703 7.76302 212.56 6.94271 213.289 6.25C214.055 5.55729 214.839 4.86458 215.641 4.17188C215.859 3.98958 216.078 3.78906 216.297 3.57031C216.516 3.35156 216.753 3.15104 217.008 2.96875C217.081 2.89583 217.172 2.85938 217.281 2.85938C217.391 2.85938 217.5 2.82292 217.609 2.75C218.047 2.75 218.284 2.73177 218.32 2.69531Z" fill="#100F0F"/>
</svg>
